<svg width="24" height="24" viewBox="0 0 24 24" fill="none" xmlns="http://www.w3.org/2000/svg">
<g clip-path="url(#clip0_2_11219)">
<path d="M17 21.6299H5C4.20435 21.6299 3.44129 21.3138 2.87868 20.7512C2.31607 20.1886 2 19.4255 2 18.6299V10.6299C2 10.3647 1.89464 10.1103 1.70711 9.92278C1.51957 9.73524 1.26522 9.62988 1 9.62988C0.734784 9.62988 0.48043 9.73524 0.292893 9.92278C0.105357 10.1103 0 10.3647 0 10.6299L0 18.6299C0 19.956 0.526784 21.2277 1.46447 22.1654C2.40215 23.1031 3.67392 23.6299 5 23.6299H17C17.2652 23.6299 17.5196 23.5245 17.7071 23.337C17.8946 23.1495 18 22.8951 18 22.6299C18 22.3647 17.8946 22.1103 17.7071 21.9228C17.5196 21.7352 17.2652 21.6299 17 21.6299ZM21 3.62988H7C6.20435 3.62988 5.44129 3.94595 4.87868 4.50856C4.31607 5.07117 4 5.83423 4 6.62988V16.6299C4 17.4255 4.31607 18.1886 4.87868 18.7512C5.44129 19.3138 6.20435 19.6299 7 19.6299H21C21.7956 19.6299 22.5587 19.3138 23.1213 18.7512C23.6839 18.1886 24 17.4255 24 16.6299V6.62988C24 5.83423 23.6839 5.07117 23.1213 4.50856C22.5587 3.94595 21.7956 3.62988 21 3.62988ZM20.59 5.62988L14.71 11.5099C14.617 11.6036 14.5064 11.678 14.3846 11.7288C14.2627 11.7795 14.132 11.8057 14 11.8057C13.868 11.8057 13.7373 11.7795 13.6154 11.7288C13.4936 11.678 13.383 11.6036 13.29 11.5099L7.41 5.62988H20.59ZM22 16.6299C22 16.8951 21.8946 17.1495 21.7071 17.337C21.5196 17.5245 21.2652 17.6299 21 17.6299H7C6.73478 17.6299 6.48043 17.5245 6.29289 17.337C6.10536 17.1495 6 16.8951 6 16.6299V6.99988L11.88 12.8799C12.4425 13.4417 13.205 13.7572 14 13.7572C14.795 13.7572 15.5575 13.4417 16.12 12.8799L22 6.99988V16.6299Z" fill="#FFC300"/>
</g>
<defs>
<clipPath id="clip0_2_11219">
<rect width="24" height="24" fill="white"/>
</clipPath>
</defs>
</svg>
